<svg width="153" height="33" viewBox="0 0 153 33" fill="none" xmlns="http://www.w3.org/2000/svg">
<path d="M3.76852 0.220215H8.92117V23.0805H8.83267C7.94425 23.0805 7.1445 22.7248 6.43377 22.1022C5.81188 21.3906 5.45599 20.6789 5.45599 19.7894V3.6892H3.67915V20.1451C3.76799 21.4793 4.30122 22.5469 5.18964 23.4364C6.1669 24.4149 7.4112 24.9485 8.83267 24.9485C10.2541 24.9485 11.4087 24.4149 12.4748 23.4364C13.4521 22.458 13.9853 21.2126 13.9853 19.7894V0.220215H20.8263C21.8036 0.220215 22.5138 1.02068 22.5138 1.91019V21.1236C22.5138 22.6358 22.2473 24.059 21.6254 25.3933C21.0923 26.7276 20.2037 27.8839 19.2265 28.9513C18.2492 29.9298 17.0054 30.8192 15.6728 31.3529C12.9187 32.5093 9.80993 32.5093 7.05583 31.3529C5.72321 30.8192 4.47942 29.9298 3.50216 28.9513C3.05795 28.5066 2.6134 28.0617 2.25803 27.528L2.34653 27.6171H2.43589C8.74366 32.8652 19.0495 28.7735 19.0495 19.4336V5.1125H20.4706L18.2496 1.55447L16.0285 5.1125H17.4496V19.7894C17.4496 20.9457 17.2721 22.0131 16.7391 23.0805C16.2949 24.0589 15.6733 25.0375 14.8737 25.838C12.3862 28.3287 8.74366 29.0401 5.54535 27.7059C4.56809 27.2611 3.59031 26.6386 2.79074 25.838C1.99116 25.0375 1.36961 24.1479 0.925404 23.0805C0.481196 22.0131 0.214844 20.9457 0.214844 19.7894V1.91019C0.214844 0.931733 1.0139 0.220215 1.90232 0.220215H3.76852Z" fill="#BCABF9"/>
<path d="M35.2526 16.0387C35.8745 16.8393 36.8517 17.284 37.829 17.1951C38.8063 17.1951 39.7835 16.7503 40.4054 16.0387C41.0273 15.2382 41.3827 14.1708 41.3827 12.8365V3.40773H45.2029V12.9254C45.2029 15.4161 44.4921 17.284 43.1595 18.6183C41.8269 19.9525 40.05 20.5752 37.9178 20.5752C35.7856 20.5752 34.0088 19.9525 32.6762 18.6183C31.3435 17.284 30.6328 15.4161 30.6328 12.9254V3.40773H34.453V12.8365C34.2753 14.1708 34.5419 15.2382 35.2526 16.0387ZM60.839 3.40773H64.6592V20.3973H60.839L52.7544 9.72322V20.3973H48.9342V3.40773H52.4879L60.839 14.3487V3.40773ZM68.8348 20.3973V3.40773H72.655V17.0172H79.94V20.3973H68.8348ZM82.6941 3.40773H86.5143V20.3973H82.6941V3.40773ZM96.1092 6.3431C95.5762 6.3431 95.0431 6.43205 94.5989 6.78785C94.2435 7.0547 94.0658 7.49946 94.0658 7.94421C94.0658 8.38896 94.3324 8.92267 94.7766 9.10057C95.2208 9.36742 96.2869 9.72322 97.886 10.168C99.4852 10.5238 100.729 11.1464 101.617 11.947C102.506 12.7475 102.95 13.9039 102.95 15.4161C102.95 16.8393 102.328 18.2625 101.262 19.152C100.107 20.1304 98.5968 20.5752 96.7311 20.5752C94.0658 20.5752 91.5783 19.5967 89.4461 17.5509L91.6671 14.7934C93.5328 16.3945 95.2208 17.1951 96.7311 17.1951C97.4418 17.1951 97.9749 17.0172 98.3303 16.7503C98.6856 16.4835 98.9521 16.0387 98.9521 15.505C98.9521 15.0603 98.6856 14.5266 98.3303 14.2597C97.886 13.9929 97.0865 13.6371 95.8427 13.3702C93.8882 12.9254 92.3779 12.3028 91.4894 11.5022C90.601 10.7017 90.1568 9.54532 90.1568 7.94421C90.1568 6.3431 90.7787 5.09779 91.9337 4.20828C93.0886 3.31878 94.5101 2.87402 96.2869 2.87402C97.4418 2.87402 98.5968 3.05192 99.6629 3.49668C100.729 3.85248 101.795 4.38618 102.595 5.18674L100.64 7.94421C99.2187 6.8768 97.7084 6.3431 96.1092 6.3431ZM113.256 6.6989V20.3973H109.435V6.6989H104.638V3.40773H118.053V6.6989H113.256ZM133.067 3.40773V6.78785H124.627V10.2569H132.268V13.4591H124.627V17.0172H133.334V20.3973H120.807V3.40773H133.067ZM142.751 3.40773C145.772 3.40773 148.082 4.11933 149.77 5.63149C151.369 7.14365 152.168 9.18952 152.168 11.858C152.168 14.5266 151.369 16.5724 149.77 18.1735C148.171 19.6857 145.772 20.4862 142.573 20.4862H136.799V3.49668L142.751 3.40773ZM142.929 17.1061C144.706 17.1061 146.038 16.6614 146.927 15.7719C147.815 14.8824 148.348 13.6371 148.348 11.947C148.348 10.2569 147.904 9.01162 146.927 8.12211C146.038 7.2326 144.528 6.78785 142.662 6.78785H140.53V17.1061H142.929Z" fill="#BCABF9"/>
<path d="M95.2193 29.2628L95.6636 28.1064H98.773L99.2172 29.2628H100.46L98.0625 23.481H96.2856L93.8867 29.2628H95.2193ZM96.1078 27.039L97.174 24.4595H97.2625L98.3288 27.039H96.1078ZM107.657 28.3733C106.68 28.3733 106.058 28.0175 106.058 27.5727H104.903C104.903 28.7291 106.058 29.4407 107.657 29.4407C109.434 29.4407 110.411 28.818 110.411 27.5727C110.411 26.4164 109.612 25.8826 107.657 25.8826C106.591 25.8826 106.058 25.7048 106.058 25.26C106.058 24.7263 106.591 24.4595 107.568 24.4595C108.456 24.4595 109.078 24.8153 109.078 25.26H110.233C110.233 24.1037 109.167 23.3921 107.568 23.3921C105.791 23.3921 104.903 24.0147 104.903 25.26C104.903 26.4164 105.702 26.9501 107.568 26.9501C108.723 26.9501 109.256 27.128 109.256 27.5727C109.345 28.0175 108.723 28.3733 107.657 28.3733ZM117.962 28.3733C116.985 28.3733 116.364 28.0175 116.364 27.5727H115.209C115.209 28.7291 116.363 29.4407 117.962 29.4407C119.739 29.4407 120.717 28.818 120.717 27.5727C120.717 26.4164 119.917 25.8826 117.962 25.8826C116.896 25.8826 116.364 25.7048 116.364 25.26C116.364 24.7263 116.897 24.4595 117.874 24.4595C118.762 24.4595 119.384 24.8153 119.384 25.26H120.539C120.539 24.1037 119.473 23.3921 117.874 23.3921C116.097 23.3921 115.209 24.0147 115.209 25.26C115.209 26.4164 116.008 26.9501 117.874 26.9501C119.029 26.9501 119.561 27.128 119.561 27.5727C119.65 28.0175 119.029 28.3733 117.962 28.3733ZM131.555 24.4595V23.3921H125.87V29.1739H131.555V28.1064H127.025V26.7722H130.4V25.7048H127.025V24.3705L131.555 24.4595ZM136.264 24.4595H138.574V29.2628H139.729V24.4595H142.039V23.3921H136.264V24.4595ZM149.323 28.3733C148.346 28.3733 147.724 28.0175 147.724 27.5727H146.57C146.57 28.7291 147.724 29.4407 149.323 29.4407C151.1 29.4407 152.078 28.818 152.078 27.5727C152.078 26.4164 151.278 25.8826 149.323 25.8826C148.257 25.8826 147.724 25.7048 147.724 25.26C147.724 24.7263 148.258 24.4595 149.235 24.4595C150.123 24.4595 150.745 24.8153 150.745 25.26H151.9C151.9 24.1037 150.834 23.3921 149.235 23.3921C147.458 23.3921 146.57 24.0147 146.57 25.26C146.57 26.4164 147.369 26.9501 149.235 26.9501C150.39 26.9501 150.923 27.128 150.923 27.5727C151.012 28.0175 150.39 28.3733 149.323 28.3733Z" fill="#BCABF9"/>
<path d="M30.4531 25.7935H92.4645L92.0203 26.9499H30.4531V25.7935Z" fill="#BCABF9"/>
</svg>
