<svg xmlns="http://www.w3.org/2000/svg" width="89" height="28" fill="#fff" fill-rule="evenodd" xmlns:v="https://vecta.io/nano"><path d="M17.84 11.809V8.76H8.841v3.049h2.645v9.677h3.71v-9.677h2.645zm4.303 5.336c0-1.374.617-2.061 1.85-2.061a3.07 3.07 0 0 1 .701.093v-3.31l-.542-.037c-1.296 0-2.121.712-2.476 2.135v-1.958h-3.102v9.483h3.57v-4.345h-.001zm9.813-5.138v5.688a1.4 1.4 0 0 1-.299.956c-.192.224-.478.349-.776.34a.68.68 0 0 1-.603-.228 1.48 1.48 0 0 1-.154-.788v-5.967h-3.729v6.779c0 .932.248 1.649.743 2.149s1.195.751 2.098.751c1.464 0 2.448-.584 2.953-1.753v1.556h3.449v-9.482h-3.682v.001zm10.834 7.246c-.561 0-.941-.145-1.14-.433-.23-.405-.34-.866-.318-1.329h6.364l.01-.541c0-1.585-.469-2.838-1.406-3.758s-2.167-1.38-3.687-1.38c-1.57 0-2.826.488-3.766 1.464-.937.966-1.444 2.257-1.411 3.59a4.59 4.59 0 0 0 1.43 3.436c.953.923 2.23 1.384 3.832 1.385 1.439 0 2.581-.328 3.424-.984a4.09 4.09 0 0 0 1.575-2.383l-3.476-.233c-.143.777-.62 1.166-1.43 1.165h.001zm-1.468-3.627c0-1.082.441-1.622 1.322-1.623a1.37 1.37 0 0 1 .936.331c.251.221.38.651.386 1.291h-2.645zm16.26-1.764h-4.158v-2.07h5.41V8.761h-9.223v12.727h3.813v-4.764h4.158v-2.862.001zm11.34 5.781v-3.786c0-1.026-.064-1.719-.192-2.079a2.48 2.48 0 0 0-.752-1.026 3.55 3.55 0 0 0-1.523-.713 9.15 9.15 0 0 0-2.112-.228c-2.822 0-4.477.991-4.963 2.974l3.401.316c.099-.69.579-1.035 1.439-1.035.294-.019.587.052.836.205.19.137.285.414.285.83v.214c-2.324.125-3.942.496-4.855 1.114s-1.369 1.428-1.369 2.429a2.74 2.74 0 0 0 .836 1.968c.557.572 1.397.858 2.518.858 1.364 0 2.383-.507 3.056-1.52a6.21 6.21 0 0 0 .131 1.324h3.551a5.23 5.23 0 0 1-.29-1.846l.001.001zm-3.579-2.135c0 .808-.14 1.33-.42 1.566a1.53 1.53 0 0 1-1.018.355c-.629 0-.943-.286-.943-.858 0-.845.794-1.352 2.382-1.52v.457h0zm15.111-2.089c0-1.037-.103-1.766-.308-2.186-.224-.438-.582-.796-1.023-1.026a3.57 3.57 0 0 0-1.752-.396c-1.314 0-2.227.513-2.738 1.538v-1.343h-3.458v9.483h3.728v-5.697c0-.945.34-1.417 1.019-1.417a.83.83 0 0 1 .575.205c.153.137.229.451.229.942v5.967h3.729v-6.07h.001zM.004 6.124l.001 1.285-.001 4.455c-.043.582.271 1.131.795 1.387 1.02.506 2.097-.202 2.1-1.381l-.008-8.471c-.003-.448.146-.539.553-.527l1.872.011.787-.003 1.508.002 3.279-.004c.896-.007 1.542-.636 1.542-1.455S11.779.005 10.872.005a1704.33 1704.33 0 0 0-7.833 0A3.01 3.01 0 0 0 .885.891c-.57.573-.886 1.351-.877 2.159L.004 6.124zM85.522 24.48v.629h0-.666c-.713 0-1.426 0-2.139-.001-1.737-.001-3.473-.002-5.21.004-.524-.03-1.023.228-1.301.674a1.44 1.44 0 0 0-.033 1.466c.257.458.744.739 1.269.733l.588.003 7.486-.011a2.98 2.98 0 0 0 2.898-2.932l.009-7.194-.004-1.762a1.39 1.39 0 0 0-.619-1.194 1.34 1.34 0 0 0-1.501-.092 1.45 1.45 0 0 0-.775 1.349l-.001 8.328z"/></svg>